<?xml version="1.0" encoding="UTF-8"?>
<svg id="Layer_1" data-name="Layer 1" xmlns="http://www.w3.org/2000/svg" xmlns:xlink="http://www.w3.org/1999/xlink" viewBox="0 0 1200 696.71">
  <defs>
    <style>
      .cls-1 {
        fill: #004c97;
      }

      .cls-2 {
        fill: url(#linear-gradient-2);
      }

      .cls-3 {
        fill: #231f20;
      }

      .cls-4 {
        fill: url(#linear-gradient);
      }

      .cls-5 {
        fill: #fff;
      }
    </style>
    <linearGradient id="linear-gradient" x1="1180.29" y1="361.48" x2="451.74" y2="361.48" gradientUnits="userSpaceOnUse">
      <stop offset="0" stop-color="#da291c"/>
      <stop offset=".07" stop-color="#df2b1d"/>
      <stop offset=".29" stop-color="#ee321f"/>
      <stop offset=".55" stop-color="#f63621"/>
      <stop offset="1" stop-color="#f93822"/>
    </linearGradient>
    <linearGradient id="linear-gradient-2" x1="8.79" y1="341.55" x2="667.13" y2="341.55" gradientUnits="userSpaceOnUse">
      <stop offset="0" stop-color="#f93822"/>
      <stop offset=".45" stop-color="#f63621"/>
      <stop offset=".71" stop-color="#ee321f"/>
      <stop offset=".93" stop-color="#df2b1d"/>
      <stop offset="1" stop-color="#da291c"/>
    </linearGradient>
  </defs>
  <g id="SMA">
    <path class="cls-3" d="M459.7,633.49l6.02-5.09c2.85,3.11,6.02,4.77,10.17,4.77,3.22,0,5.55-1.5,5.55-3.79,0-1.77-1.3-2.8-6.18-4.77-4.72-1.92-8.93-4.46-8.93-9.81,0-7.42,6.64-11.99,14.43-11.99,6.23,0,10.54,2.13,13.6,5.4l-5.5,5.5c-2.75-2.54-5.19-3.89-8.72-3.89s-5.29,1.87-5.29,3.68c0,1.92,1.45,2.75,6.38,4.77,4.98,2.02,8.72,4.51,8.72,9.81,0,7.63-6.8,12.09-14.43,12.09-7.01,0-12.4-2.28-15.83-6.7Z"/>
    <path class="cls-3" d="M495.92,624.2c0-10.85,8.82-21.49,21.85-21.49,10.02,0,16.61,6.96,16.61,16.09,0,10.85-8.82,21.49-21.85,21.49-10.02,0-16.61-6.95-16.61-16.09ZM526.07,619.33c0-5.4-3.27-9.24-9.24-9.24-7.63,0-12.61,7.32-12.61,13.6,0,5.4,3.27,9.24,9.24,9.24,7.63,0,12.61-7.32,12.61-13.6Z"/>
    <path class="cls-3" d="M539.09,624.46c0-11.57,9.86-21.75,22.11-21.75,6.96,0,11.63,2.96,14.53,7.73l-6.59,4.62c-2.13-3.01-4.57-4.98-8.93-4.98-6.64,0-12.82,6.33-12.82,14.06,0,5.24,3.69,8.77,8.88,8.77,3.53,0,5.81-1.4,8.51-3.58l5.19,5.4c-3.48,3.22-7.68,5.55-13.75,5.55-9.91,0-17.13-6.12-17.13-15.83Z"/>
    <path class="cls-3" d="M584.03,603.34h7.99l-9.76,36.33h-7.99l9.76-36.33Z"/>
    <path class="cls-3" d="M613.14,603.08h7.68l5.76,36.59h-8.2l-1.14-8.15h-15.36l-5.5,8.15h-8.61l25.38-36.59ZM616.31,624.46l-1.66-11.99-7.99,11.99h9.65Z"/>
    <path class="cls-3" d="M640.8,603.34h7.99l-7.79,29.06h18.11l-1.97,7.27h-26.11l9.76-36.33Z"/>
    <path class="cls-3" d="M688.85,603.34h8.3l5.24,15.36,13.54-15.36h9.24l-9.76,36.33h-8.1l6.33-23.72-14.22,15.52h-.21l-5.81-15.36-6.33,23.56h-7.99l9.76-36.33Z"/>
    <path class="cls-3" d="M733.88,603.34h27.14l-1.92,7.11h-19.2l-1.97,7.42h16.87l-1.92,7.01h-16.87l-2.08,7.68h19.51l-1.92,7.11h-27.4l9.76-36.33Z"/>
    <path class="cls-3" d="M768.39,603.34h10.59c7.06,0,11.47,1.92,14.22,4.67,2.7,2.7,3.94,6.23,3.94,10.64,0,5.45-2.08,10.43-5.97,14.32-4.36,4.36-10.64,6.7-19.05,6.7h-13.49l9.76-36.33ZM773.06,632.46c4.83,0,9.24-1.51,12.15-4.41,2.34-2.34,3.63-5.55,3.63-9.08,0-2.49-.78-4.41-2.13-5.76-1.61-1.61-4.26-2.65-8.36-2.65h-3.89l-5.92,21.9h4.51Z"/>
    <path class="cls-3" d="M809.07,603.34h7.99l-9.76,36.33h-7.99l9.76-36.33Z"/>
    <path class="cls-3" d="M838.19,603.08h7.68l5.76,36.59h-8.2l-1.14-8.15h-15.36l-5.5,8.15h-8.62l25.38-36.59ZM841.35,624.46l-1.66-11.99-7.99,11.99h9.65Z"/>
    <path class="cls-3" d="M893.45,603.08h7.68l5.76,36.59h-8.2l-1.14-8.15h-15.36l-5.5,8.15h-8.62l25.38-36.59ZM896.61,624.46l-1.66-11.99-7.99,11.99h9.65Z"/>
    <path class="cls-3" d="M911.29,624.51c0-11.31,9.6-21.8,22.68-21.8,7.68,0,12.3,2.96,14.84,6.28l-5.92,5.24c-2.13-2.34-4.98-4.2-9.55-4.2-7.78,0-13.75,6.64-13.75,14.22,0,5.66,4.15,8.72,9.29,8.72,2.8,0,4.88-.67,6.49-1.4l1.71-5.92h-8.04l1.87-6.9h15.78l-5.14,18.11c-3.58,2.02-7.73,3.42-13.18,3.42-8.3,0-17.08-4.93-17.08-15.78Z"/>
    <path class="cls-3" d="M958.72,603.34h27.14l-1.92,7.11h-19.2l-1.97,7.42h16.87l-1.92,7.01h-16.87l-2.08,7.68h19.51l-1.92,7.11h-27.4l9.76-36.33Z"/>
    <path class="cls-3" d="M993.23,603.34h7.37l10.59,23.1,6.23-23.1h7.89l-9.76,36.33h-6.8l-11-23.82-6.38,23.82h-7.89l9.76-36.33Z"/>
    <path class="cls-3" d="M1027.11,624.46c0-11.57,9.86-21.75,22.11-21.75,6.96,0,11.63,2.96,14.53,7.73l-6.59,4.62c-2.13-3.01-4.57-4.98-8.93-4.98-6.64,0-12.82,6.33-12.82,14.06,0,5.24,3.68,8.77,8.87,8.77,3.53,0,5.81-1.4,8.51-3.58l5.19,5.4c-3.48,3.22-7.68,5.55-13.75,5.55-9.91,0-17.13-6.12-17.13-15.83Z"/>
    <path class="cls-3" d="M1072.88,625.35l-7.53-22.01h8.88l4.25,15.05,12.46-15.05h9.65l-19.88,22.73-3.68,13.6h-7.99l3.84-14.32Z"/>
  </g>
  <g>
    <path class="cls-1" d="M1199.89,201.57c-1.12-11.78-6.92-22.76-15.05-31.18-2.08-2.07-4.29-4.02-6.72-5.72-2.49-1.6-5.29-2.88-8.31-3.1-3.01-.32-6.08.6-8.57,2.25-2.57,1.63-4.33,4.1-6.2,6.3-7.46,8.98-14.85,18.01-22.15,27.12-29.13,36.49-56.94,74-84.62,111.59-27.58,37.66-54.85,75.56-81.37,113.98-13.28,19.19-26.33,38.57-39.34,57.91-6.67,9.47-14.72,17.96-23.67,25.34-4.47,3.71-9.08,7.25-13.96,10.36-2.44,1.53-4.95,2.94-7.59,3.97-2.21.88-4.58,1.38-6.97,1.75.71-3.57,2.14-7.07,3.74-10.44,1.82-3.77,3.93-7.42,6.17-10.99,4.49-7.13,9.52-13.93,14.84-20.47,5.34-6.54,10.98-12.82,17.03-18.72,3.05-3.08,5.83-6.38,7.98-10.25,2.15-3.87,3.19-8.31,3.39-12.65.26-4.36-.2-8.68-.89-12.91-.72-4.24-1.7-8.44-3.25-12.52-1.61-3.94-3.3-8.08-6.49-11.4-3.16-3.34-7.72-5.1-12.08-5.51-4.4-.53-8.78-.07-13,.58-4.24.65-8.42,1.56-12.56,2.59-7.56,1.88-14.98,4.15-22.37,6.5.75-5.05.94-10.37-.87-15.49-1.02-2.9-2.84-5.56-5.23-7.59-2.41-1.99-5.38-3.31-8.45-3.74-6.3-.93-12.18,1.5-17.28,4.28-5.15,2.88-9.72,6.6-13.9,10.66-8.25,8.2-15.08,18-18.89,29.18-3.82,10.72-3.04,23.47,3.38,33.29-2.09,3.11-4.24,6.22-6.51,9.17-2.53,3.22-5.11,6.48-7.73,9.62-5.24,6.32-10.91,12.29-16.73,18.09-5.84,5.78-11.9,11.33-18.42,16.25-5.39,3.98-11,8.02-17.07,10.22,1.97-3.64,4.29-7.22,6.55-10.78l4.55-7.23c1.48-2.46,3.13-4.7,4.38-7.55,2.53-5.49,3.07-11.99,1.47-17.83-1.27-4.87-3.7-9.18-6.58-13.11,9.23-2.29,17.28-8.17,22.99-15.51,6.35-8.17,10.43-18.09,10.98-28.63.03-5.5-1.79-10.85-5.07-15.15-3.19-4.37-7.73-7.47-12.47-9.64-4.79-2.16-9.89-3.34-14.99-3.93-2.56-.33-5.11-.4-7.67-.47-2.66-.07-5.31.33-7.76.72-4.8.76-9.9,1.33-14.82,2.27-4.96.92-9.89,2.05-14.74,3.48-9.72,2.84-19.08,6.78-28.01,11.44-17.84,9.43-34.16,21.32-49.25,34.57-7.52,6.66-14.67,13.75-21.33,21.31-6.65,7.56-12.76,15.54-18.64,23.63-1.5,2-2.87,4.15-4.35,5.84-1.54,1.78-3.28,3.47-5.07,5.13-3.63,3.39-7.32,6.43-11.34,9.31-8.02,5.68-16.32,11.19-25.36,14.31-4.5,1.51-9.29,2.5-13.94,2.6-.59.01-1.13,0-1.59-.04-.04,0-.09-.01-.13-.02l.06-1.7c.17-2.3.61-4.62,1.22-6.92,2.51-9.23,7.16-18.04,12.15-26.5,9.96-16.6,21.76-32.18,33.76-47.54,8.61-.13,17.35-.59,25.98-2.64,4.5-1.07,8.96-2.62,13.12-4.89,4.17-2.19,8.01-5.35,11.13-8.63,3.23-3.3,6.18-6.93,8.63-10.94,2.34-3.81,4.91-8.76,4.04-14.27-.7-5.46-5.12-10.1-10.19-11.51-2.63-.74-4.73-.91-7.03-1.24-.76-.09-1.51-.15-2.27-.24,4.56-6.15,9.03-12.35,13.03-19.03,4.71-7.92,8.85-16.83,9.35-26.65.26-4.87-.45-9.77-1.98-14.41-1.61-4.6-3.91-8.83-6.75-12.7-2.85-3.85-6.2-7.38-10.3-10.18-2.11-1.43-4.56-2.58-7.26-3.06-2.7-.47-5.65-.18-8.17.95-2.54,1.09-4.62,2.78-6.37,4.64-1.86,1.96-2.94,3.84-4.35,5.61-2.7,3.61-5.48,7.19-8.28,10.74l-17.05,21.25c-11.16,13.81-22.29,27.68-33.1,41.82-7.85.37-15.68.93-23.5,1.74-4.13.43-8.25.92-12.37,1.5l-6.18.95c-1.95.32-4.46.71-6.71,1.85-2.25,1.09-4.31,2.77-5.76,4.9-.37.53-.7,1.08-.99,1.67-.26.47-.53,1.46-.47,2.11.03.69.19,1.27.36,1.71.76,1.75,1.63,2.55,2.44,3.44,3.25,3.21,6.74,5.51,9.49,8.08,2.73,2.58,4.5,5.4,4.85,8.88.28,1.77.04,3.83.86,6.66.44,1.39,1.34,2.85,2.45,3.82.16.15.33.24.49.37-11.02,16.69-21.51,33.82-29.91,52.18-4.4,9.63-8.13,19.68-10.35,30.26-2.15,10.6-2.33,21.82.59,32.5,2.8,10.67,9.49,20.76,19.14,26.74,9.57,6.1,21.07,8.04,31.87,7.56,10.87-.38,21.56-2.89,31.56-6.85,8.71-3.44,16.88-7.98,24.62-13.09,1.62,3.69,3.8,7.17,6.63,10.11,3.74,4.07,8.54,7.05,13.6,9.03,5.11,1.89,10.51,2.75,15.84,2.78,5.32-.03,10.56-.79,15.62-2.02,10.13-2.54,19.54-6.92,28.33-12.07,7.43-4.33,14.4-9.29,21.11-14.56,3.51,7.83,9.94,14.37,17.66,17.94,9.2,4.46,19.57,4.98,29.1,3.91,19.45-2.31,36.9-11.85,51.77-23.35,14.98-11.59,27.95-25.29,40.02-39.52,11.65-13.78,22.69-28.26,32.05-43.92,2.25-.25,4.48-.58,6.69-.99-8.2,9.93-15.63,20.57-21.52,32.22-3.76,7.45-6.78,15.41-8.39,23.82-.82,4.21-1.23,8.5-1.05,12.9.11,4.41,1.01,8.83,2.6,12.99,3.04,8.4,9.19,15.49,16.68,20.19,7.56,4.64,16.42,6.81,25.11,6.75,16.16-.13,31.31-6.23,44.52-14.42,2.79,3.62,6.03,6.75,9.42,9.57,1.98,1.69,4.69,3.73,7.75,4.77,3.08,1.12,6.63,1.31,9.85.45,3.27-.84,6.17-2.74,8.32-5,1.07-1.08,2.09-2.44,2.83-3.48l2.3-3.18c3.1-4.22,6.28-8.38,9.51-12.52,11.41-14.52,23.53-28.52,36.4-41.73,1.2,15.8,6.24,31.4,15.67,44.39,5.48,7.51,12.61,14,20.99,18.32,8.36,4.37,17.83,6.41,27.15,6.31,9.39-.11,18.54-2.48,26.98-6.06,8.46-3.59,16.3-8.33,23.62-13.66,14.64-10.7,27.44-23.48,39.25-36.96,5.9-6.75,11.56-13.7,17.02-20.79l4.07-5.38c1.38-1.9,2.66-3.93,3.66-6.16,2.09-4.51,2.54-9.53,2.18-14.22-.46-4.63-1.3-9.52-4.3-13.75-1.4-2.03-3.29-3.99-5.76-5.19-2.46-1.19-5.27-1.58-7.93-1.04-2.68.51-5.06,1.91-6.92,3.61-.94.85-1.76,1.78-2.5,2.7l-2.07,2.63c-2.75,3.46-5.58,6.87-8.46,10.22-11.59,13.32-24.05,26.12-38.38,36.24-7.15,4.91-14.96,9.42-23.26,10.62-4.18.7-8.01-.15-11.28-2.62-2.64-1.99-4.75-4.75-6.46-7.77,17.11-3.21,33.85-9.46,48.04-19.79,7.4-5.39,14.05-11.92,19.19-19.57,5.15-7.62,8.69-16.41,9.89-25.57,1.2-9.09.34-18.73-3.9-27.08-4.12-8.39-11.7-14.87-20.39-18.02-8.72-3.2-18.21-3.45-27.19-1.9-7.72,1.33-15.11,3.94-22.18,7.17l71.39-84.78c12.25-14.68,24.43-29.44,36.23-44.5,11.71-15.12,23.34-30.38,33.05-46.91,2.91-5.06,5.74-10.22,7.63-15.8,1.92-5.56,2.72-11.5,2.3-17.38ZM1026.18,478.06c2.04-1.32,4.09-2.61,6.11-3.96,3.67-2.5,7.39-4.91,11.12-7.33l5.68-3.53c.96-.57,1.92-1.16,2.9-1.7.44-.26,1.08-.59,1.37-.8.27-.22.61-.68,1.23-.97-.45.41-.84.58-1.1.9l-1.16,1.21c-.81.79-1.62,1.56-2.49,2.29-1.69,1.49-3.5,2.84-5.34,4.13-3.7,2.57-7.62,4.81-11.66,6.76-2.19,1.09-4.42,2.08-6.67,3ZM872.66,523.49s0,0-.01,0c0,0,0,0,.01,0h0ZM704.6,447.65c.58,2.59,1.6,5.12,3.08,7.37.69,1.11,1.52,2.12,2.42,3.06-2.42,2.16-4.39,4.34-6.55,6.53-2.94,3.07-5.96,6.09-8.76,9.2-5.67,6.21-11.32,12.29-17.28,18.11-5.94,6-11.86,11.7-18.33,16.95-3.22,2.62-6.62,4.98-10.1,7.23-1.75,1.09-3.55,2.13-5.43,2.96-.93.45-1.9.77-2.86,1.12-.49.13-.98.31-1.47.4-.45.11-1.14.12-1.29.3.04-.56.05-1.03.04-1.55l.23-1.78c.16-1.18.27-2.37.48-3.54.77-2.27,1.19-4.64,2.24-6.81,1.82-4.43,4.12-8.66,6.73-12.69,5.19-8.08,11.29-15.57,17.82-22.63,6.55-7.04,13.48-13.74,20.81-19.93,5.73-4.8,11.72-9.43,18-13.24-.42,2.93-.45,5.97.23,8.95Z"/>
    <path class="cls-1" d="M469.74,300.5c9.8.65,19.76.44,29.42-1.56,9.68-1.85,19.04-5.08,28.05-8.95,18.03-7.86,34.64-18.54,50.26-30.35,15.6-11.87,30.23-24.96,44.06-38.83,11.28-11.29,21.74-23.42,31.03-36.41,9.33-12.96,17.4-26.86,23.54-41.62,3.05-7.38,5.69-14.96,7.48-22.76,1.88-7.77,3.12-15.73,3.26-23.74.68-16.02-4.06-32.25-13.29-45.39-9.19-13.24-22.6-23.12-37.27-29.47-14.74-6.35-30.64-9.6-46.56-10.83-31.97-2.47-64,2.4-94.94,10-30.99,7.73-61.16,18.54-90.38,31.38-29.22,12.87-57.49,27.89-84.6,44.78-27.06,16.95-53,35.75-77.21,56.63-24.11,20.96-46.54,44.06-65.3,70.08-18.57,25.96-33.82,55.19-39.39,87.11-2.79,15.87-2.95,32.33.42,48.21,3.3,15.91,10.77,30.85,20.85,43.49,10.07,12.74,22.67,23.12,35.89,32.2,13.27,9.09,27.37,16.75,41.56,24.1,14.21,7.3,28.61,14.18,42.71,21.5,14.2,7.13,27.54,15.58,39.47,25.91,5.96,5.14,11.55,10.7,16.6,16.7,5.03,6,9.55,12.45,12.88,19.42,3.24,6.89,5.58,14.62,3.8,21.64-1.77,7.1-6.94,13.17-12.82,18.04-12.03,9.75-26.92,15.85-41.91,20.46-15.1,4.55-30.72,7.4-46.45,9.02-7.87.8-15.77,1.3-23.68,1.48-7.88.16-15.89.05-23.84.02-15.9-.18-31.83-.34-47.4-2.5-31.31-3.86-59.24-20.08-86.51-35.95l-20.81-20.23-2.63-2.56c-.93-.92-1.93-1.81-2.94-2.63-2.05-1.62-4.21-3.08-6.56-4.3-2.37-1.19-4.83-2.32-8.02-2.55-.69-.09-1.88.07-2.36.13-.56.09-1.11.15-1.65.2-1.09.09-2.11.11-3.08-.03l-.88-.13c-.25-.02-.4-.08-.92-.06-.36-.01-1.28.15-1.82.56-1.09.82-1.23,1.4-1.44,1.71l-.45.93c-.58,1.17-1.06,2.36-1.55,3.55-.92,2.39-1.69,4.81-2.37,7.24-1.31,4.87-2.28,9.79-2.94,14.74-1.3,9.89-1.74,19.91-.52,29.99.7,5.01,1.78,10,3.42,14.82,1.74,4.78,3.79,9.48,6.52,13.79,5.32,8.7,12.47,16.08,20.28,22.34,15.82,12.19,33.62,21.65,52.44,27.91,18.72,6.5,38.08,10.77,57.6,13.65,19.5,2.79,39.42,3.96,59.1,2.99,39.38-1.61,78.8-9.05,115.41-24.27,18.32-7.52,35.79-17.22,51.83-28.98,15.95-11.84,30.42-26.04,41.36-42.94,10.91-16.78,18.02-36.73,17.6-57.22-.17-10.2-2.27-20.45-6.3-29.83-3.93-9.44-9.65-17.97-16.14-25.65-13.13-15.33-29.22-27.3-45.57-38.25-16.42-10.93-33.41-20.75-50.03-30.97-16.58-10.24-33.04-20.73-47.38-33.47-7.12-6.38-13.68-13.36-18.73-21.25-5.07-7.85-8.53-16.63-9.53-25.78-1.01-9.13.28-18.62,2.81-27.69,2.5-9.13,6.4-17.91,10.84-26.39,9.13-16.89,20.75-32.5,33.44-47.13,25.58-29.18,55.42-54.64,87.09-77.25,31.76-22.52,65.61-42.3,101.47-57.43,17.93-7.5,36.42-13.79,55.42-17.55,9.48-1.88,19.12-2.99,28.72-3.04,4.75.02,9.51.46,14.05,1.58,4.53,1.1,8.87,2.94,12.28,5.83,3.41,2.88,5.7,6.87,6.52,11.32.85,4.42.5,9.25-.23,13.91-1.52,9.39-5.05,18.48-9.31,27.13-8.65,17.33-20.33,33.11-32.87,47.99-12.64,14.84-26.28,28.87-40.72,41.99-14.47,13.08-29.98,25.03-46.73,35.05-4.15,2.57-8.48,4.86-12.5,7.87-1.98,1.53-3.9,3.34-5.11,5.73-1.2,2.4-1.44,5.14-.99,7.7.46,2.59,1.87,5.04,3.86,6.73,1.96,1.73,4.29,2.87,6.64,3.72,4.75,1.67,9.71,2.29,14.61,2.67Z"/>
  </g>
  <g>
    <g>
      <path class="cls-5" d="M1179.1,224.03c6.47-11.19,9.98-19.32,9.98-30.21,0-14.15-9.25-30.78-21.98-39.52l-.49-.31c-9.81-5.82-16.41-.56-19.42,3.03-1.97,2.3-3.89,4.65-5.81,6.99l-2.44,2.97c-2.85,3.46-5.69,6.93-8.53,10.42-3.06,3.78-6.11,7.57-9.15,11.37-3.33,4.18-6.64,8.37-9.94,12.59-3.59,4.59-7.17,9.2-10.72,13.83-3.83,4.97-7.64,9.96-11.44,14.96-4.01,5.28-8.01,10.57-11.98,15.87-4.13,5.5-8.26,11.02-12.37,16.54-4.21,5.66-8.41,11.33-12.6,17.01-4.27,5.77-8.52,11.55-12.76,17.34-4.29,5.85-8.57,11.72-12.84,17.59-4.31,5.93-8.61,11.86-12.9,17.81-4.32,5.98-8.62,11.97-12.92,17.97-4.29,6-8.57,12.01-12.84,18.03-4.23,5.97-8.45,11.94-12.66,17.93-4.12,5.87-8.23,11.76-12.31,17.65-3.98,5.73-7.93,11.46-11.88,17.21-3.8,5.55-7.59,11.11-11.37,16.68-3.65,5.38-7.28,10.77-10.91,16.17-3.53,5.26-7.06,10.53-10.58,15.79-2,2.99-4.37,6.1-7.24,9.52-1.75,2.09-3.54,4.1-5.32,5.96-3.45,3.62-7.3,7.2-11.78,10.94-4.28,3.57-8.16,6.53-11.87,9.04-3.94,2.67-7.2,4.46-10.27,5.64-2.26.87-4.86,1.48-8.13,1.91,1.89-14.73,23.48-44.45,42.95-63.28l.39-.41c6.58-7.24,9.92-12.87,9.92-23.52,0-6.45-1.82-17.23-4.8-23.92-3.59-8.62-7.87-15.7-23.4-14.77-12.27.88-29.21,6.03-43.07,10.52.57-3.13.86-6.06.86-8.8,0-12.95-8.25-18.75-16.42-18.75-18.56,0-48.09,30.74-48.09,56.31,0,7.44,2.2,14.46,6.09,19.93-.36.57-.75,1.16-1.14,1.75-1.51,2.28-3.09,4.51-4.7,6.71-.68.93-1.4,1.83-2.12,2.73l-1.06,1.35c-1.08,1.38-2.17,2.76-3.28,4.13-1.06,1.33-2.15,2.65-3.25,3.96-1.09,1.29-2.19,2.58-3.31,3.85-1.12,1.27-2.25,2.53-3.4,3.78-1.17,1.27-2.35,2.54-3.55,3.8-1.21,1.28-2.45,2.55-3.68,3.8-1.26,1.28-2.52,2.54-3.79,3.78-1.28,1.25-2.57,2.49-3.88,3.71-1.28,1.2-2.57,2.38-3.9,3.55-1.28,1.14-2.58,2.26-3.88,3.35-1.27,1.06-2.57,2.11-3.87,3.13-1.27.99-2.56,1.96-3.85,2.91-1.24.91-2.5,1.79-3.78,2.65-1.21.81-2.43,1.59-3.67,2.34-1.13.68-2.27,1.32-3.45,1.92-1.03.53-2.08,1.02-3.15,1.45-.94.38-1.91.72-2.89,1-.77.22-1.56.42-2.33.57,1.95-4.51,6.26-11.22,9.38-16.07,2.23-3.46,4.49-6.98,6.64-10.63,5.93-10.55,4.29-21.75-4.91-33.29-.18-.23-.36-.45-.55-.67,20.31-3.26,34.57-24.35,35.32-43.11,0-13.43-11.96-26.98-38.68-26.98-2.56,0-4.96.39-7.07.73-.75.12-1.49.24-2.21.33-2.83.36-5.66.76-8.47,1.22-6.27,1.02-11.96,2.27-17.41,3.81-11.49,3.25-23.31,8.35-35.12,15.14-10.99,6.32-22.19,14.08-33.27,23.06-10.58,8.57-20.24,17.71-28.74,27.17-8.77,9.77-16.47,20.22-22.86,29.16-2.5,3.5-6.58,7.16-9.56,9.82-3.42,3.05-7.43,6.15-12.26,9.48-7.23,4.96-15.83,10.39-24.81,12.98-4.61,1.33-9.08,2.03-12.95,2.03-3.52,0-3.52-.93-3.52-2.34,0-20.38,23.99-54.11,48.3-85.11,16.73-.18,33.57-1.7,45.49-11.54,4.41-3.87,10.5-10.12,14.4-17.94,2.89-5.77,1.94-10.04.63-12.61-1.01-1.99-3.58-5.48-9.39-6.44-3.35-.56-7.14-.99-11.2-1.34,1.85-2.44,3.81-5.07,5.73-7.75,12.87-17.96,23.04-34.34,17.06-53.08-2.94-8.77-9.37-17.46-16.37-22.12-4-2.67-11.85-5.76-19.35,3.55l-.29.38c-6.51,9.05-16.04,20.87-27.07,34.55-10.72,13.29-22.78,28.24-34.83,44.09-16.3.73-32.93,2.44-45.34,4.69-5.66,1.15-8.11,4.59-9.06,6.54-1.2,2.46-2.08,6.51.58,11.89,4.86,9.72,12.05,16.72,21.45,20.94-29.22,43.71-42.9,75.13-42.9,98.32,0,30.03,17.98,48.69,46.92,48.69,19.95,0,40.42-7.33,61.02-21.83,4.51,14.49,17.29,23.58,34.58,23.58,23.94,0,49.37-16.81,66.52-30.96,1.15,3.94,2.99,7.57,5.49,10.8,6.85,8.84,17.95,13.7,31.23,13.7,43.3,0,80.99-40.66,108.98-76.09l.36-.48c8.36-10.8,15.38-21.04,20.89-30.5,6.46-.58,12.59-1.92,18.43-3.61-20.77,23.04-37.21,49.69-37.21,73.13,0,21.74,17.4,38.13,40.46,38.13,14.72,0,30.13-5.25,45.94-15.63,2.69,4.15,6.63,8.31,11.79,12.43,3.81,3.16,7.77,4.51,11.8,3.99,4.01-.52,7.49-2.82,10.35-6.82,13.49-18.88,34.19-43.86,54.48-63.72,0,.39,0,.77,0,1.12,0,35.26,21.17,72.74,60.41,72.74,31.79,0,68.49-27.23,109.1-80.95,4.89-6.48,5.87-11.32,5.87-17.03,0-2.76-.57-8.55-2.68-12.76l-.34-.61c-1.18-1.95-3.96-6.53-9.61-6.95-5.77-.41-9.35,3.89-10.7,5.51-22.96,29.28-55.24,60.58-76.98,60.58-8.01,0-13.82-6.15-17.47-13.77,46.43-7.63,79.07-36.46,79.07-71.31,0-23.5-16.27-39.29-40.47-39.29-11.79,0-23.95,3.79-35.61,9.55,13.94-16.68,28.05-33.28,41.95-49.63,44.97-52.9,83.81-98.58,101.6-129.17ZM862.1,512.93s0,0,.01,0h0s0,0-.01,0ZM1044.33,449.01c-5.01,7.29-21.37,20.58-46.64,26.98,18.65-14.7,37-24.52,46.64-26.98ZM627.25,510.58c-.07-.38-.13-.94-.13-1.74,0-27.08,48.14-74.72,70.76-86.1-.82,2.59-1.52,5.52-1.52,8.66,0,5.77,2.22,10.98,6.25,14.68.61.56,1.27,1.09,1.95,1.58-1.11.77-2.2,1.69-3.27,2.76-3.38,3.38-7.12,7.44-11.07,11.74-6.56,7.13-13.99,15.21-21.69,22.18-18.78,18.14-34.03,26.27-40.81,26.27-.18,0-.33,0-.46-.01Z"/>
      <path class="cls-5" d="M610.73,210.01c41.43-41.42,65.18-87.7,65.18-126.97S646.21,0,562.47,0c-77.93,0-186.93,40.69-277.7,103.65-100.25,69.54-157.75,149.73-157.75,220.01,0,86.2,79.17,128.78,142.78,162.99,40.01,21.52,74.56,40.1,74.56,61.52,0,30.63-61.91,56.51-135.2,56.51s-130.25-24.91-175.12-74.05l-.26-.27c-4.4-4.43-9.04-6.29-13.73-5.51-7.37,1.2-10.84,8.2-11.95,10.45-4.93,9.78-8.11,26.78-8.11,43.29,0,30.44,13.98,52.35,45.31,71,36.16,23.03,95.88,33.51,136.11,33.51,65.18,0,125.95-16.4,171.11-46.17,42.94-28.31,67.57-65.87,67.57-103.05,0-52.82-51.51-83.91-101.31-113.98-47.73-28.81-92.81-56.02-92.81-98.91,0-99.02,214.64-252.41,323.07-252.41,13.42,0,35.93,3.39,35.93,26.09,0,27.65-23.86,66.74-67.19,110.08-32.85,32.86-55.96,46.49-68.38,53.82-8.85,5.22-14.7,8.67-14.7,15.89,0,13.35,19.05,15.06,35.65,15.06,53,0,110.69-49.82,140.36-79.51Z"/>
    </g>
    <path class="cls-4" d="M1180.29,193.81c0-10.56-7.05-24.64-18.17-32.28-2.96-1.76-5.28-2.34-8.24,1.19-2.77,3.23-5.43,6.56-8.14,9.85-2.84,3.45-5.67,6.9-8.49,10.37-3.05,3.76-6.09,7.53-9.11,11.32-3.32,4.16-6.61,8.33-9.89,12.52-3.58,4.58-7.14,9.17-10.69,13.77-3.82,4.96-7.62,9.93-11.4,14.91-4,5.27-7.99,10.55-11.96,15.84-4.13,5.49-8.24,11-12.35,16.51-4.21,5.65-8.4,11.31-12.58,16.98-4.26,5.76-8.5,11.53-12.74,17.31-4.28,5.85-8.56,11.7-12.82,17.57-4.3,5.92-8.6,11.85-12.88,17.78-4.31,5.97-8.61,11.95-12.9,17.94-4.29,5.99-8.56,11.99-12.82,18-4.22,5.96-8.43,11.92-12.63,17.9-4.11,5.86-8.21,11.73-12.29,17.61-3.97,5.71-7.91,11.44-11.84,17.17-3.8,5.54-7.58,11.08-11.35,16.64-3.64,5.37-7.27,10.75-10.89,16.14-3.53,5.26-7.05,10.51-10.57,15.78-2.37,3.55-5.02,6.96-7.82,10.29-1.83,2.18-3.72,4.3-5.68,6.36-3.93,4.13-8.14,7.98-12.52,11.63-4.04,3.37-8.2,6.61-12.56,9.57-3.79,2.57-7.77,4.93-12.05,6.57-3.64,1.39-7.41,2.11-11.26,2.56-.43.05-.88.15-1.31.15-4.7,0-7.63-2.93-7.63-7.04,0-19.36,28.17-54.55,45.77-71.57,5.86-6.46,7.63-9.98,7.63-17.61,0-5.87-1.77-15.25-4.12-20.54-2.93-7.03-4.68-9.96-14.66-9.38-16.44,1.17-43.4,11.15-56.91,15.26,3.53-8.8,5.29-16.43,5.29-22.3,0-6.45-2.93-9.96-7.63-9.96-12.91,0-39.3,25.81-39.3,47.52,0,7.62,2.93,14.67,8.19,18.77-1.44,2.66-3.04,5.24-4.71,7.77-1.58,2.39-3.24,4.73-4.94,7.04-1.07,1.46-2.23,2.87-3.34,4.3-1.11,1.42-2.22,2.83-3.35,4.23-1.11,1.38-2.23,2.75-3.37,4.11-1.13,1.34-2.27,2.68-3.43,4-1.16,1.32-2.34,2.63-3.53,3.93-1.21,1.32-2.42,2.62-3.65,3.91-1.25,1.32-2.52,2.62-3.79,3.91-1.29,1.31-2.6,2.61-3.91,3.9-1.32,1.29-2.66,2.57-4.01,3.84-1.34,1.25-2.69,2.49-4.07,3.71-1.34,1.2-2.71,2.37-4.09,3.52-1.34,1.12-2.71,2.23-4.09,3.31-1.34,1.05-2.71,2.08-4.08,3.09-1.34.98-2.7,1.93-4.07,2.85-1.32.89-2.67,1.75-4.04,2.57-1.3.78-2.62,1.52-3.97,2.21-1.26.65-2.55,1.24-3.86,1.78-1.22.49-2.47.93-3.73,1.3-1.18.34-2.39.63-3.6.85-1.16.22-2.33.38-3.5.53-.54.07-1.12.2-1.66.2-3.51,0-5.85-2.35-5.85-5.86,0-8.22,10.55-21.7,18.18-34.61,5.29-9.4.58-17.59-4.11-23.48-4.69-5.86-8.79-5.28-12.9-1.16-8.8,8.79-20.53,22.88-32.87,34.02-17,16.43-35.19,28.74-46.92,28.74-5.27,0-9.38-2.34-9.38-10.55,0-34.02,65.12-97.38,87.4-97.38,2.34,0,3.52,1.16,3.52,2.93,0,5.28-4.1,11.14-4.1,17.01,0,7.04,5.26,12.92,18.76,11.74,17.03-1.77,28.74-19.95,29.33-34.62,0-9.39-9.38-18.19-29.89-18.19-2.67,0-5.51.65-8.16.99-2.73.35-5.46.74-8.18,1.18-5.53.9-11.03,2.06-16.43,3.59-11.62,3.29-22.68,8.29-33.13,14.3-11.3,6.49-21.99,14.06-32.11,22.26-9.89,8.02-19.22,16.74-27.73,26.21-8.05,8.96-15.25,18.6-22.25,28.4-2.95,4.13-7.09,7.89-10.85,11.26-4.13,3.7-8.58,7.03-13.14,10.17-8.44,5.79-17.45,11.32-27.35,14.18-4.88,1.41-10.29,2.37-15.39,2.37-7.64,0-12.31-4.09-12.31-11.13,0-24.07,26.39-60.44,52.8-93.88,18.16,0,34.01-1.16,43.98-9.38,4.7-4.11,9.39-9.38,12.32-15.26,1.76-3.52,1.18-5.86-2.34-6.45-7.05-1.18-16.43-1.77-27-2.34,0,0,8.23-9.98,15.83-20.54,11.76-16.41,20.55-30.5,15.87-45.17-2.36-7.04-7.63-14.08-12.91-17.6-3.52-2.35-5.26-1.18-7.62,1.75-13.51,18.79-39.33,48.7-64.53,82.13-17.01.59-35.19,2.35-48.09,4.69-2.93.59-4.11,2.35-2.37,5.88,5.28,10.55,14.08,17.6,27.58,19.95-26.39,38.13-48.09,76.26-48.09,103.24,0,25.22,14.06,39.9,38.13,39.9,25.47,0,48.85-13.33,68.26-29.76-.14,1.53-.22,3.05-.22,4.53,0,18.77,12.91,26.98,27.56,26.98,23.48,0,52.23-19.36,75.09-41.65-5.27,20.53,7.05,35.19,28.15,35.19,42.83,0,82.15-47.52,102.09-72.75.03-.04.06-.09.09-.13,8.16-10.52,16.35-22.2,22.77-33.89,22.88-.58,42.84-12.91,58.68-16.43-31.1,25.81-63.37,64.53-63.37,94.45,0,17.59,14.08,29.34,31.67,29.34s35.09-8.86,50.5-20.96c-.02.34-.06.68-.06,1.02,0,7.04,7.02,14.08,12.89,18.77,3.53,2.93,6.45,2.93,9.38-1.18,17.62-24.64,49.88-62.77,76.88-83.89,21.11-17.01,46.35-31.08,58.07-31.08,2.36,0,4.12,1.17,5.28,2.35.57,1.17,1.17,2.35,1.17,3.51,0,11.73-26.41,34.61-64.53,41.07-5.87,1.16-6.45,4.1-6.45,10.56,0,31.67,18.18,63.95,51.61,63.95,40.47,0,83.9-53.4,102.08-77.45,3.54-4.69,4.1-7.63,4.1-11.73,0-2.34-.56-6.45-1.74-8.8-1.77-2.92-2.93-4.1-5.87-.57-17.01,21.7-54.57,63.94-83.91,63.94-14.66,0-25.21-12.92-29.33-29.93,46.95-4.1,82.14-30.5,82.14-63.94,0-18.78-12.33-30.5-31.68-30.5-28.76,0-63.95,26.4-91.51,55.72,70.39-90.33,162.49-187.71,191.83-238.17,6.45-11.16,8.79-17.59,8.79-25.81"/>
    <path id="S_-_Rhodamine_Red_C" data-name="S - Rhodamine Red C" class="cls-2" d="M49.93,642.09c-28.61-17-41.13-35.77-41.13-63.52,0-14.29,2.68-30.41,7.17-39.33,3.55-7.17,7.13-7.17,11.59-2.69,37.57,41.14,95.73,76.91,181.61,76.91,79.59,0,143.99-28.62,143.99-65.3,0-65.3-217.34-87.65-217.34-224.51C135.82,176.06,404.18,8.79,562.47,8.79c69.8,0,104.66,33.99,104.66,74.25s-26.83,84.98-62.61,120.75c-40.23,40.26-91.22,76.93-134.14,76.93-14.34,0-26.86-1.79-26.86-6.27,0-6.25,28.64-11.62,80.51-63.5,37.57-37.58,69.76-81.4,69.76-116.3,0-21.46-16.09-34.88-44.72-34.88-115.39,0-331.86,158.33-331.86,261.2,0,95.7,194.12,117.17,194.12,212.89,0,67.99-93.03,140.43-229.9,140.43-42.93,0-99.28-11.64-131.5-32.21"/>
  </g>
</svg>